<svg xmlns="http://www.w3.org/2000/svg" version="1.0" preserveAspectRatio="xMidYMid meet" viewBox="57 592 1390 319.98" height="39">

<g transform="translate(0.000000,1504.000000) scale(0.100000,-0.100000)" fill="#000000" stroke="none">
<path d="M7806 9111 c-8 -12 -14 -74 -21 -211 -3 -63 -8 -149 -10 -190 -2 -41 -7 -122 -10 -180 -3 -58 -8 -130 -10 -160 -2 -30 -7 -104 -10 -165 -3 -60 -8 -141 -10 -180 -3 -38 -9 -153 -15 -255 -5 -102 -12 -221 -15 -265 -14 -209 -35 -595 -35 -634 0 -24 -2 -42 -4 -40 -2 2 -67 281 -145 619 -78 338 -146 625 -151 638 -11 24 -48 30 -68 10 -9 -9 -12 -81 -12 -263 0 -182 -3 -254 -12 -263 -9 -9 -112 -12 -403 -12 -291 0 -394 -3 -403 -12 -16 -16 -16 -120 0 -136 9 -9 121 -12 444 -12 337 0 434 -3 442 -13 6 -7 85 -336 177 -732 91 -395 171 -723 178 -727 18 -12 43 -10 55 5 12 15 22 151 57 802 3 55 7 129 10 165 2 36 7 115 10 175 3 61 8 142 10 180 3 39 9 153 15 255 15 264 19 322 22 326 2 1 25 -149 52 -334 27 -185 53 -345 58 -354 8 -17 40 -18 461 -18 339 0 456 3 465 12 7 7 12 37 12 68 0 31 -5 61 -12 68 -9 9 -108 12 -383 12 -296 0 -375 3 -390 14 -15 11 -25 59 -56 272 -20 142 -56 387 -79 544 -22 157 -64 440 -91 629 -27 190 -55 351 -61 358 -12 15 -54 18 -62 4z"/>
<path d="M8678 8386 c-25 -7 -57 -20 -71 -29 -34 -22 -74 -75 -82 -109 l-7 -26 153 -1 c84 -1 155 -4 157 -6 3 -2 -59 -193 -137 -425 -77 -231 -141 -427 -141 -435 0 -13 25 -15 182 -13 l181 3 61 180 61 180 325 5 c238 4 331 8 347 18 13 7 31 29 42 50 28 55 161 471 161 503 0 44 -20 77 -59 96 -33 17 -79 18 -581 20 -416 2 -556 -1 -592 -11z m848 -169 c2 -2 -16 -68 -41 -146 -35 -108 -50 -141 -63 -141 -238 -4 -312 -4 -312 0 0 3 21 67 46 143 33 98 52 140 64 145 20 8 298 7 306 -1z"/>
<path d="M11462 8392 c-18 -12 -312 -900 -312 -943 0 -47 30 -85 78 -99 24 -7 141 -10 337 -8 279 3 303 4 339 23 39 21 89 81 101 123 l6 22 -240 0 c-133 0 -241 1 -241 3 0 1 65 198 145 437 108 323 142 436 132 442 -16 10 -328 10 -345 0z"/>
<path d="M711 8315 c-51 -16 -95 -55 -122 -107 -10 -21 -19 -40 -19 -43 0 -3 70 -5 155 -5 138 0 155 -2 155 -17 0 -9 -60 -195 -134 -412 -73 -218 -137 -411 -141 -428 l-7 -33 184 0 183 0 61 183 60 182 325 5 c340 5 352 7 381 52 27 42 168 481 168 524 0 52 -26 87 -78 102 -60 18 -1112 15 -1171 -3z m869 -167 c0 -7 -20 -74 -44 -148 l-43 -135 -168 -3 c-132 -2 -166 0 -163 10 3 7 25 69 48 138 24 69 48 131 53 138 7 9 52 12 163 12 117 0 154 -3 154 -12z"/>
<path d="M9962 8008 c-5 -7 -48 -131 -95 -276 -61 -189 -84 -271 -80 -295 14 -86 43 -97 270 -97 98 0 195 5 216 11 42 11 103 60 112 90 4 11 9 19 11 16 2 -2 -3 -23 -11 -47 -27 -75 -47 -70 273 -70 258 0 291 2 327 19 49 23 89 64 110 114 l15 37 -160 0 c-88 0 -160 2 -160 4 0 2 36 108 80 236 44 128 80 241 80 251 0 18 -10 19 -175 19 -170 0 -175 -1 -189 -22 -7 -13 -48 -128 -91 -255 l-77 -233 -124 0 c-93 0 -124 3 -124 13 0 6 36 117 80 245 44 129 78 238 74 243 -9 15 -350 11 -362 -3z"/>
<path d="M12330 8008 c-19 -5 -50 -21 -69 -35 -66 -51 -122 -224 -91 -282 6 -13 30 -31 53 -41 36 -16 70 -19 271 -20 127 0 232 -3 234 -5 3 -2 -4 -28 -14 -57 l-19 -53 -317 -3 -317 -2 -6 -34 c-10 -49 15 -99 58 -120 33 -15 75 -16 419 -14 432 3 433 4 489 80 31 43 114 281 104 298 -4 6 -113 10 -310 10 l-304 0 21 60 20 60 378 0 379 0 -67 -195 c-65 -194 -66 -196 -52 -237 11 -29 25 -46 50 -59 32 -18 67 -19 545 -19 320 0 524 4 547 10 21 6 51 22 68 37 29 24 70 90 70 113 0 7 -146 10 -451 10 l-451 0 6 31 c3 17 12 43 19 58 l12 26 307 3 c228 2 308 5 316 15 16 20 82 230 82 260 0 46 -26 83 -70 101 -36 14 -133 16 -958 15 -575 0 -930 -5 -952 -11z m1592 -164 c8 -8 -22 -97 -37 -109 -7 -6 -61 -9 -129 -7 l-118 3 7 27 c3 14 13 41 20 59 l14 33 119 0 c65 0 121 -3 124 -6z"/>
<path d="M2075 7935 c-80 -28 -105 -69 -184 -306 -39 -117 -71 -228 -71 -244 0 -43 20 -75 60 -97 33 -17 59 -18 415 -16 l380 3 45 25 c59 33 78 69 152 293 l63 187 65 0 65 0 49 -237 c27 -131 53 -246 58 -255 8 -16 27 -18 173 -18 l163 0 50 53 c27 28 83 90 123 136 l74 84 22 -99 c12 -55 26 -115 30 -134 l8 -35 166 -3 c147 -2 168 0 186 15 11 10 116 125 233 256 l212 237 68 0 68 0 -64 -192 c-67 -201 -71 -231 -35 -272 40 -46 40 -46 770 -46 531 0 691 3 699 13 5 6 44 118 87 247 43 129 81 239 85 244 8 8 240 9 248 1 2 -2 -8 -37 -22 -78 -14 -42 -26 -80 -26 -86 0 -8 54 -11 183 -9 l182 3 32 90 c38 108 42 171 12 208 -32 42 -77 49 -280 45 -204 -4 -221 -8 -278 -73 -17 -20 -31 -34 -31 -32 0 3 7 24 15 47 8 23 15 47 15 51 0 6 -79 8 -182 7 l-183 -3 -86 -250 -86 -250 -396 -3 c-326 -2 -397 0 -397 11 0 7 7 34 16 60 12 36 21 47 37 47 12 0 151 0 309 1 207 0 289 4 296 12 18 23 82 232 82 267 0 20 -7 46 -16 59 -36 51 -40 51 -671 51 l-588 0 -179 -201 c-98 -110 -181 -198 -183 -195 -2 2 -17 69 -33 148 -16 78 -34 167 -40 196 l-12 52 -96 0 -97 0 -179 -200 c-98 -110 -181 -199 -183 -196 -3 3 -23 89 -44 192 -22 102 -42 190 -45 195 -3 5 -280 9 -637 9 -519 -1 -639 -3 -672 -15z m484 -167 c0 -7 -24 -83 -52 -168 l-52 -155 -114 -3 c-63 -1 -120 -1 -127 2 -13 5 1 55 73 264 l26 72 123 0 c93 0 124 -3 123 -12z m2807 -11 c-3 -13 -12 -40 -21 -60 l-15 -37 -125 0 c-69 0 -125 2 -125 4 0 3 20 62 35 104 3 9 39 12 131 12 l126 0 -6 -23z"/>
</g>
</svg>